<svg xmlns="http://www.w3.org/2000/svg" viewBox="0 0 64 64" role="img" aria-label="Tirna Chakraborty site icon">
  <defs>
    <linearGradient id="tile" x1="10" x2="54" y1="8" y2="56" gradientUnits="userSpaceOnUse">
      <stop stop-color="#0a2458"/>
      <stop offset="0.5" stop-color="#102f73"/>
      <stop offset="1" stop-color="#04122f"/>
    </linearGradient>
    <linearGradient id="spark" x1="22" x2="42" y1="14" y2="50" gradientUnits="userSpaceOnUse">
      <stop stop-color="#ffffff"/>
      <stop offset="1" stop-color="#8fd9ff"/>
    </linearGradient>
  </defs>
  <rect width="56" height="56" x="4" y="4" rx="12" fill="url(#tile)"/>
  <g fill="url(#spark)" stroke="#dff7ff" stroke-width="0.75">
    <rect width="6" height="19" x="29" y="10" rx="2" transform="rotate(0 32 32)"/>
    <rect width="6" height="19" x="29" y="10" rx="2" transform="rotate(45 32 32)"/>
    <rect width="6" height="19" x="29" y="10" rx="2" transform="rotate(90 32 32)"/>
    <rect width="6" height="19" x="29" y="10" rx="2" transform="rotate(135 32 32)"/>
    <rect width="6" height="19" x="29" y="10" rx="2" transform="rotate(180 32 32)"/>
    <rect width="6" height="19" x="29" y="10" rx="2" transform="rotate(225 32 32)"/>
    <rect width="6" height="19" x="29" y="10" rx="2" transform="rotate(270 32 32)"/>
    <rect width="6" height="19" x="29" y="10" rx="2" transform="rotate(315 32 32)"/>
  </g>
  <circle cx="32" cy="32" r="4.25" fill="#071946"/>
</svg>
